inDegrees=no
num_controls=7
num_derivatives=13
num_iterations=157
num_multipliers=7
num_parameters=0
num_slacks=7
num_states=26
objective=5.683909
objective_accelerations=0.763579
objective_balance=0.051588
objective_effort=0.280119
objective_height=4.543621
objective_ligament=0.045002
solver_duration=1748.611362
status=Solve_Succeeded
success=true
DataType=double
version=3
OpenSimVersion=4.4-2022-07-23-0e9fedc
endheader
time	/jointset/ground_pelvis/pelvis_tilt/value	/jointset/ground_pelvis/pelvis_tx/value	/jointset/ground_pelvis/pelvis_ty/value	/jointset/hip_l/hip_flexion_l/value	/jointset/hip_l/hip_adduction_l/value	/jointset/hip_l/hip_rotation_l/value	/jointset/back/lumbar_extension/value	/jointset/patellofemoral_l/patellar_flexion_l/value	/jointset/knee_l/knee_flexion_l/value	/jointset/knee_l/knee_adduction_l/value	/jointset/knee_l/knee_rotation_l/value	/jointset/ankle_l/ankle_angle_l/value	/jointset/subtalar_l/subtalar_angle_l/value	/jointset/ground_pelvis/pelvis_tilt/speed	/jointset/ground_pelvis/pelvis_tx/speed	/jointset/ground_pelvis/pelvis_ty/speed	/jointset/hip_l/hip_flexion_l/speed	/jointset/hip_l/hip_adduction_l/speed	/jointset/hip_l/hip_rotation_l/speed	/jointset/back/lumbar_extension/speed	/jointset/patellofemoral_l/patellar_flexion_l/speed	/jointset/knee_l/knee_flexion_l/speed	/jointset/knee_l/knee_adduction_l/speed	/jointset/knee_l/knee_rotation_l/speed	/jointset/ankle_l/ankle_angle_l/speed	/jointset/subtalar_l/subtalar_angle_l/speed	/forceset/tau_hip_flexion_l	/forceset/tau_hip_adduction_l	/forceset/tau_hip_rotation_l	/forceset/tau_knee_flexion_l	/forceset/tau_ankle_angle_l	/forceset/tau_subtalar_angle_l	/forceset/tau_lumbar_extension	lambda_cid13_p0	lambda_cid13_p1	lambda_cid13_p2	lambda_cid13_p3	lambda_cid13_p4	lambda_cid13_p5	lambda_cid14_p0	/jointset/ground_pelvis/pelvis_tilt/accel	/jointset/ground_pelvis/pelvis_tx/accel	/jointset/ground_pelvis/pelvis_ty/accel	/jointset/hip_l/hip_flexion_l/accel	/jointset/hip_l/hip_adduction_l/accel	/jointset/hip_l/hip_rotation_l/accel	/jointset/back/lumbar_extension/accel	/jointset/patellofemoral_l/patellar_flexion_l/accel	/jointset/knee_l/knee_flexion_l/accel	/jointset/knee_l/knee_adduction_l/accel	/jointset/knee_l/knee_rotation_l/accel	/jointset/ankle_l/ankle_angle_l/accel	/jointset/subtalar_l/subtalar_angle_l/accel	gamma_cid13_p0	gamma_cid13_p1	gamma_cid13_p2	gamma_cid13_p3	gamma_cid13_p4	gamma_cid13_p5	gamma_cid14_p0
1.5	-0.3578613316362312	-0.005652665712064357	0.7583135914003918	1.097995642594976	-0.4374299746536217	-0.211053943737972	-0.2247000345228953	0.8487597217058888	0.8487597217058798	-0.1128177830860704	-0.1516562547867407	0.1754935630589798	0.004937230348535123	0.6462793087208351	0.2312509902349845	0.5515006144877075	-2.442875924585169	0.211036847387966	-0.7399815565331062	0.3175882491188619	-2.129434196231957	-2.129434196232198	-0.1814846798077193	0.1182185940874157	-0.5186697618289418	-0.03352778604513112	-0.1708513452087605	0.03171215550296362	-0.01031281993589363	-0.2025473325638386	0.01131459521538933	0.04448577697095217	0.1657767962021816	-27.93903182723584	-17.97891059313196	6.586120188965568	-5.887600028476869	-519.0380803294113	-64.15346705728568	-22.96846364009912	0.6489789862907105	0.6655910244750076	-0.546886466845537	-1.271178434862956	0.728537330664684	-0.3119562468718202	1.458661673566598	-1.422082270911192	-1.422082270911273	0.1626326908839774	0.2103424020120784	-0.6117150691338915	0.514633000126604	6.676472693953514e-07	-6.887840910471437e-08	-4.596784703491055e-06	-3.36256224920571e-07	9.533604886453241e-07	2.571512296859918e-08	5.783842134453852e-07
1.51	-0.3513660856843427	-0.003307090113717359	0.7638001482577407	1.073504876964491	-0.4352849745731304	-0.2184645487076972	-0.2214526030809461	0.8273965540915422	0.8273965540915799	-0.114630579250936	-0.1504627695487043	0.1702765288158647	0.004625406155761696	0.6526711478330611	0.2378337344960832	0.5456913407077157	-2.454931539890863	0.2179409917395232	-0.742030750443297	0.331860265327926	-2.142899668566326	-2.142899668566514	-0.1810703228380184	0.1204753595063346	-0.5246491549499969	-0.02882475611034474	-0.1648093789397215	0.03076945338287339	-0.01012750536970441	-0.1996831170650259	0.01243712476456066	0.04400273278749942	0.1608554404912335	-27.36762706671942	-17.88290534515329	6.58649799913878	-5.89610142260638	-514.9346273877323	-64.3188738062665	-23.95763693438208	0.6195695072551924	0.6500031021475222	-0.6156639815184854	-1.120791480235409	0.6685912852847464	-0.1345280801740332	1.405805503200763	-1.263948328464787	-1.263948328456754	-0.01865500239749297	0.2320139518202659	-0.5778864288097697	0.450471700589072	6.852819537480765e-07	9.933777697730595e-08	-4.484105427223619e-06	-2.918142396836349e-07	9.719101782390567e-07	1.703889156365313e-07	5.838213885963619e-07
1.52	-0.3448098647146201	-0.0008966096777153687	0.7692250691477011	1.04890394750058	-0.4330714853895483	-0.2258922710399396	-0.2180635846951835	0.8059076980310962	0.805907698031189	-0.1164391302865806	-0.1492469825884865	0.1650023336424951	0.004361079004422924	0.6584743122879554	0.2442319577659828	0.5391734210100072	-2.464908691269068	0.2247346680064217	-0.7434050290367419	0.3459056378819694	-2.154571885451295	-2.15457188545143	-0.1806356539647445	0.1226789385247933	-0.5301019478797908	-0.0240283777581823	-0.15876741267074	0.02982675126277784	-0.009942190803456007	-0.1968189015662196	0.01355965431373466	0.04351968860404094	0.1559340847802305	-26.79759396796237	-17.78775859267107	6.588270780198789	-5.95483474057075	-510.8842101133802	-64.55920149329188	-24.94588760138129	0.5312440548243698	0.6286868262351611	-0.6886156503889319	-0.8554856493649476	0.7064437137329459	-0.1769731835226206	1.413332942562465	-1.063431181031146	-1.063431181031103	0.1666950715985611	0.1997051219200249	-0.50639503088169	0.5333026836018097	7.00530294251819e-07	2.346699263778689e-07	-4.392303767491085e-06	-2.573329920427359e-07	9.9547629131089e-07	3.055793850088612e-07	5.86414880001328e-07
1.53	-0.338198524382843	0.00157679604992623	0.7745813325536434	1.024213655370206	-0.4307906789238652	-0.2333308683235886	-0.2145354642149657	0.7843111338608838	0.7843111338608851	-0.1182428697956631	-0.1480096279852256	0.1596761894765614	0.004145096133723531	0.6636908419284155	0.2504045941609226	0.5319647071046852	-2.472780728837179	0.2314016833672458	-0.7442164521461117	0.3596661314038882	-2.164421235424971	-2.164421235425061	-0.1800896512301472	0.124779973495572	-0.5350375455928074	-0.01915792468016238	-0.152880192226818	0.02912289708632256	-0.009657831205209967	-0.1936802442955887	0.01420023472882818	0.0426915170228344	0.1510697487947766	-26.40196392525565	-17.49575233198941	6.539884142602595	-5.712941292763014	-506.9312224194695	-64.47483724060966	-25.93192701191036	0.5015101961202935	0.6048188776298884	-0.753974253287231	-0.6976026504605177	0.6436118597558225	-0.01795127556240218	1.349558543426795	-0.8978470822421032	-0.8978470822354404	0.001829518092431168	0.2126680608643242	-0.4737528293221974	0.4658970633133944	7.132431444160175e-07	3.350627868043838e-07	-4.322684575326886e-06	-2.334350280976264e-07	1.024372354328206e-06	4.306938233796138e-07	5.859869574261579e-07
1.54	-0.3315380881991715	0.00411058150781848	0.7798621138219959	0.99945573489616	-0.4284438460220751	-0.24077452471851	-0.2108713086022467	0.7626256441555986	0.7626256441555023	-0.1200404939486758	-0.1467517899569964	0.1543033671959366	0.003978213882486539	0.6682934826674136	0.2563079038161129	0.5240769934920021	-2.478434360002346	0.2379399552280136	-0.744416851292209	0.3731126643826165	-2.172356992466901	-2.172356992466947	-0.1794125827474634	0.1267756235146515	-0.5394375708182472	-0.01420825386569003	-0.1469929717829305	0.02841904290988227	-0.009373471607139715	-0.1905415870249466	0.01484081514393115	0.04186334544165445	0.1462054128092807	-26.00660390756273	-17.20625569873888	6.494821214545689	-5.527891923772795	-503.0150099247941	-64.46432284931271	-26.91523178474823	0.4084662745319339	0.5748214782852399	-0.8244155918611563	-0.4118043687761783	0.6806950137216963	-0.05476839086811772	1.350540833924377	-0.6807125946820406	-0.6807125946820585	0.1929082212158315	0.1786281315801993	-0.3992805333663308	0.5491462308922889	7.203705581513818e-07	5.560788952336076e-07	-4.129851041015319e-06	-1.794641865707343e-07	1.038739798934894e-06	5.603227167085117e-07	5.869231838951654e-07
1.55	-0.3248346828392061	0.006702131691190298	0.7850607844330528	0.9746518774437894	-0.4260324968996403	-0.248217936607691	-0.2070746348776895	0.7408701833374082	0.740870183337495	-0.1218306360305351	-0.1454750953952179	0.1488893176282447	0.003861042125520756	0.6722722940147817	0.2619641410354313	0.5155554386849426	-2.481986028456838	0.2442876470221282	-0.7441107725557935	0.3861481204210682	-2.178423810586847	-2.178423810586797	-0.1786576614900602	0.1285898930539099	-0.5432681775787899	-0.009228262126697808	-0.1405222923665146	0.02629633529901153	-0.009091524719593477	-0.1888712115913274	0.01702759171531078	0.04127981765782957	0.1409274359660891	-25.13065811387285	-17.11224020922047	6.486728953665131	-5.741714100778037	-499.438782120093	-64.93440395588669	-27.89597966678685	0.3753586164634172	0.5553177481312157	-0.8810719203098197	-0.2741005376475192	0.6058168283044807	0.0970875436045751	1.268953972706856	-0.5230804981074474	-0.523080498092948	0.01052684598946416	0.186105227758839	-0.3592978393178503	0.4723443072538618	7.210625777404808e-07	9.16073963318119e-07	-3.795053155968749e-06	-9.084416000396397e-08	1.036367748416295e-06	6.95153047271794e-07	5.894311473063773e-07
1.56	-0.3180949353554461	0.009349102827630476	0.7901712301970026	0.9498230528160976	-0.423558868746055	-0.2556535294019605	-0.2031498253959693	0.7190633715225424	0.7190633715227873	-0.1236144803462685	-0.1441796023654639	0.143440092574565	0.003793654018315095	0.6755619074271162	0.2673920944297848	0.5064320240705932	-2.483427795065808	0.2503957614581627	-0.7428530323110458	0.3987398158155728	-2.182627191805057	-2.182627191804909	-0.1781530295131769	0.1305353170995734	-0.5464726680161187	-0.004251523913658514	-0.1340516129501043	0.02417362768816555	-0.008809577832441549	-0.1872008361576786	0.01921436828670205	0.04069628987404719	0.135649459122879	-24.25230894719233	-17.01824661992355	6.478187443366623	-6.011819053271613	-495.8608787213922	-65.46681170114384	-28.87521293945368	0.2706266875251986	0.5291647132922738	-0.9447875533191131	0.01017600032823786	0.632779542105719	0.1355639107982916	1.261788705134933	-0.3080252143347189	-0.3080252143346978	0.1428503651118357	0.2048590328612309	-0.2740572687235742	0.5484955257016948	6.243919969530947e-07	1.448404595736969e-06	-2.799386822704499e-06	8.304595430655031e-08	8.886745575074545e-07	7.356126330755228e-07	5.33517496224495e-07
1.57	-0.3113259141149944	0.01204888069447529	0.7951874217051563	0.9249914776186764	-0.4210246100262833	-0.2630766598066745	-0.1991010522891129	0.6972247172661256	0.6972247172662149	-0.1253897429908915	-0.1428671825950938	0.1379620912139365	0.003777101594139572	0.678144016525961	0.2724934405911456	0.4967103096855489	-2.482502603933263	0.2564159908846178	-0.741633532948042	0.4109283499125086	-2.184763220910352	-2.184763220910197	-0.1769141230495366	0.1319516619534268	-0.5490425018917287	0.000931101314681327	-0.1285909710752421	0.02392191133335354	-0.008413542522330954	-0.1836679867353797	0.01893996339569907	0.03928362520058584	0.1310279384742396	-24.20299369808238	-16.39422575428708	6.356844003963467	-5.343091022636935	-492.4471140150795	-64.97546611437184	-29.85470609840356	0.237209998593671	0.4902188175086477	-1.00018462083293	0.1913436947527511	0.5803144734266619	0.1363390735669301	1.18441741554641	-0.1153920413417595	-0.1153920413404529	0.1126595266570843	0.1104292513614629	-0.2355687858871665	0.5012264252011815	4.06018165695103e-07	2.196154683573741e-06	-9.776349291681552e-07	3.635236782967435e-07	5.593299411108137e-07	6.58108787929811e-07	4.045768270262459e-07
